# xmcd
#
# Track frame offsets:
#	150
#	14164
#	25202
#	37648
#	48273
#	63135
#	82521
#	101779
#	118271
#	134873
#	154202
#	170694
#	188842
#	206214
#	218717
#	238124
#	255911
#	277179
#	286621
#	305760
#	320291
#	339142
#
# Disc length: 4748 seconds
#
# Revision: 0
# Processed by: cddbd v1.5.2PL0 Copyright (c) Steve Scherf et al.
# Submitted via: EasyCDDAExtractor 2010.6.0.0
#
DISCID=3a128a16
DTITLE=Various Artist - Country Hits, Vol. 39
DYEAR=2010
DGENRE=Country
TTITLE0=Alan Jackson - Chasin' That Neon Rainbow
TTITLE1=Rodney Crowell - Above And Beyond
TTITLE2=Tim McGraw - Give It To Me Strait
TTITLE3=Gary Allan - Living In A House Full Of Love
TTITLE4=Toby Keith - Wouldn't Wanna Be Ya
TTITLE5=Darryl Worley - living in the here and now
TTITLE6=Rodney Crowell - This Too Will Pass
TTITLE7=Tim McGraw - Hard On The Ticker
TTITLE8=Bellamy Brothers - Sugar Daddy - Wgeorge Jones
TTITLE9=Toby Keith - Pick 'em Up And Lay 'em Down
TTITLE10=Gary Allan - Man Of Me
TTITLE11=Rodney Crowell - Things That Go Bump In The Day
TTITLE12=Darryl Worley - Messed Up In Memphis
TTITLE13=Tim McGraw - Refried Dreams
TTITLE14=Gary Allan - You Don't Know A Thing About Me
TTITLE15=Toby Keith - Dream Walkin'
TTITLE16=Alan Jackson - Job Description
TTITLE17=Elizabeth Cook - Snake In Bed
TTITLE18=Rodney Crowell - Now That We're Alone
TTITLE19=Tim McGraw - That's Just Me
TTITLE20=Billy Ray Cyrus - Harper Valley P.T.A.
TTITLE21=Gary Allan - Ring
EXTD=
EXTT0=
EXTT1=
EXTT2=
EXTT3=
EXTT4=
EXTT5=
EXTT6=
EXTT7=
EXTT8=
EXTT9=
EXTT10=
EXTT11=
EXTT12=
EXTT13=
EXTT14=
EXTT15=
EXTT16=
EXTT17=
EXTT18=
EXTT19=
EXTT20=
EXTT21=
PLAYORDER=
